<svg version="1.0" xmlns="http://www.w3.org/2000/svg"
 width="3064.000000pt" height="1035.000000pt" viewBox="0 0 3064.000000 1035.000000"
 preserveAspectRatio="xMidYMid meet">

<g transform="translate(0.000000,1035.000000) scale(0.100000,-0.100000)"
fill="#000000" stroke="none">
<path d="M14887 10194 c-182 -33 -227 -55 -1042 -527 -819 -474 -1219 -709
-1285 -755 -101 -72 -226 -198 -287 -290 -63 -94 -121 -222 -155 -339 l-23
-78 -3 -1298 -3 -1298 36 -105 c95 -286 257 -507 474 -649 161 -105 1839
-1073 2016 -1163 93 -47 217 -85 336 -103 113 -16 339 -6 444 21 110 27 302
124 680 342 1640 945 1602 922 1715 1037 123 124 241 316 306 496 l29 80 3
1313 2 1314 -34 103 c-69 206 -181 390 -319 522 -99 95 -150 126 -1177 720
-1089 630 -1074 623 -1274 658 -110 19 -332 18 -439 -1z m-677 -2220 c14 -9
222 -213 463 -453 l437 -436 438 436 c240 240 448 444 462 453 30 20 70 20
115 2 47 -20 75 -69 75 -130 l0 -50 -450 -451 -450 -450 436 -435 c239 -239
442 -447 450 -462 36 -69 3 -155 -71 -183 -36 -14 -50 -15 -79 -5 -26 8 -154
129 -481 452 l-445 440 -445 -440 c-327 -323 -455 -444 -481 -452 -29 -10 -43
-9 -79 5 -74 28 -107 114 -71 183 8 15 211 223 450 462 l436 435 -450 450
-450 451 0 48 c0 26 7 60 15 77 32 61 122 88 175 53z"/>
<path d="M184 2773 c-18 -27 -19 -58 -19 -963 0 -905 1 -936 19 -963 l19 -29
643 4 c713 3 677 0 677 68 0 68 30 65 -623 68 l-590 4 0 387 0 388 263 6 c144
4 343 7 441 7 198 0 205 2 206 66 0 60 8 59 -472 62 l-438 4 0 388 0 388 590
4 c653 3 623 0 623 68 0 68 36 65 -677 68 l-643 4 -19 -29z"/>
<path d="M16503 2776 l-28 -24 1 -799 c0 -865 -1 -846 56 -956 27 -53 92 -122
134 -142 95 -45 236 -39 248 10 16 63 -16 95 -95 95 -77 0 -135 42 -178 129
-17 34 -19 92 -25 856 -6 818 -6 820 -27 838 -29 23 -53 21 -86 -7z"/>
<path d="M18285 2788 c-47 -25 -45 11 -45 -984 l0 -943 26 -20 c26 -21 36 -21
529 -21 276 0 543 3 594 7 81 5 94 9 107 28 18 28 2 70 -30 79 -11 3 -261 9
-553 13 l-533 6 0 907 0 908 -34 16 c-40 19 -36 18 -61 4z"/>
<path d="M8385 2721 c-28 -12 -61 -51 -68 -80 -3 -13 0 -38 7 -55 21 -48 50
-69 101 -70 38 -1 50 4 77 32 66 66 33 168 -58 178 -21 2 -48 0 -59 -5z"/>
<path d="M13910 2723 c-25 -9 -62 -47 -71 -72 -13 -31 4 -81 37 -112 38 -36
103 -33 143 5 16 16 33 41 36 56 7 30 -13 88 -36 107 -18 14 -88 25 -109 16z"/>
<path d="M26590 2717 c-43 -15 -73 -67 -64 -112 3 -16 19 -43 35 -60 25 -25
37 -30 75 -29 79 2 130 76 100 147 -7 18 -20 38 -29 45 -23 19 -77 24 -117 9z"/>
<path d="M12799 2631 l-34 -18 -3 -231 -2 -230 -116 -4 c-108 -3 -117 -5 -135
-27 -21 -26 -18 -57 8 -78 8 -6 65 -14 127 -18 l113 -7 6 -412 c5 -388 6 -414
27 -473 43 -123 144 -231 255 -272 115 -43 276 -51 306 -15 20 24 15 75 -9 94
-13 11 -55 21 -118 28 -151 17 -227 64 -286 175 -23 41 -23 48 -26 458 l-3
416 174 5 c99 3 183 10 195 17 38 20 41 81 4 96 -9 4 -96 10 -193 13 l-177 4
-7 229 c-6 192 -10 230 -24 242 -28 24 -48 26 -82 8z"/>
<path d="M5915 2213 c-228 -15 -428 -146 -524 -344 -107 -222 -108 -481 -4
-699 48 -100 175 -229 279 -283 154 -80 375 -96 540 -41 140 46 264 131 264
180 0 30 -41 58 -73 50 -13 -3 -50 -21 -82 -41 -353 -212 -759 -54 -851 332
-10 39 -15 77 -11 86 5 14 68 16 544 19 506 3 541 4 567 22 l29 18 -7 91 c-21
278 -194 509 -436 582 -61 18 -173 31 -235 28z m170 -148 c132 -35 244 -123
303 -242 31 -60 62 -163 62 -202 l0 -21 -495 0 -495 0 0 26 c0 42 48 172 84
227 68 107 190 195 296 216 72 14 181 12 245 -4z"/>
<path d="M11364 2209 c-119 -14 -199 -52 -321 -151 l-73 -59 0 58 c0 81 -15
129 -43 137 -46 12 -67 7 -79 -21 -14 -34 -23 -1084 -11 -1233 8 -89 10 -96
35 -107 31 -15 72 -4 82 23 3 9 9 215 13 458 l6 441 30 65 c87 185 299 283
544 251 147 -19 267 -92 342 -209 60 -95 63 -117 70 -580 8 -466 6 -455 71
-455 64 0 65 2 69 331 4 374 -8 572 -42 665 -102 279 -363 425 -693 386z"/>
<path d="M23940 2209 c-103 -13 -214 -73 -293 -159 -36 -39 -67 -70 -69 -70
-3 0 -8 41 -10 92 -5 79 -9 94 -28 110 -35 28 -78 24 -92 -9 -9 -20 -13 -210
-16 -676 l-4 -647 36 -15 c43 -18 83 -6 91 27 3 13 9 224 13 469 l7 445 33 66
c40 82 120 159 209 201 64 30 76 32 213 37 143 5 145 5 157 30 7 15 10 35 7
47 -12 44 -131 69 -254 52z"/>
<path d="M25235 2214 c-151 -19 -285 -84 -379 -183 -17 -17 -33 -31 -37 -31
-3 0 -9 39 -11 86 -5 94 -17 114 -67 114 -49 0 -54 -11 -63 -142 -11 -147 -5
-1175 6 -1201 18 -39 96 -45 112 -9 4 10 10 217 14 462 7 475 7 477 61 555
113 167 328 245 549 201 209 -43 346 -180 370 -373 5 -37 11 -237 14 -444 3
-207 9 -384 12 -393 10 -27 51 -38 82 -23 24 11 28 20 35 82 12 102 2 778 -13
845 -45 205 -218 382 -425 433 -63 16 -208 27 -260 21z"/>
<path d="M27895 2209 c-118 -12 -224 -64 -343 -166 l-49 -43 -5 82 c-4 70 -8
84 -29 100 -24 20 -69 19 -94 -2 -19 -16 -25 -254 -18 -812 l6 -517 33 -16
c37 -17 76 -8 90 22 4 10 10 218 12 463 l4 444 30 59 c61 122 163 199 314 237
137 35 273 21 395 -40 105 -53 173 -129 215 -240 15 -39 18 -103 23 -478 l6
-434 28 -24 c34 -29 47 -30 80 -4 36 29 40 96 29 540 -9 361 -10 377 -34 441
-36 97 -74 156 -142 224 -134 131 -324 188 -551 164z"/>
<path d="M3965 2194 c-139 -34 -295 -139 -379 -257 -55 -77 -102 -175 -116
-242 -14 -63 -25 -1094 -15 -1298 7 -141 8 -149 31 -164 22 -14 27 -14 61 4
l38 20 3 416 2 417 83 -83 c65 -67 99 -92 167 -125 200 -99 431 -97 640 5 174
85 305 246 357 443 23 87 23 272 0 360 -37 140 -125 281 -232 370 -60 50 -188
113 -271 134 -79 20 -286 20 -369 0z m386 -146 c221 -82 363 -293 362 -538 0
-110 -18 -184 -70 -282 -148 -284 -540 -375 -811 -189 -197 136 -286 402 -215
644 52 178 207 332 384 382 85 23 265 15 350 -17z"/>
<path d="M7499 2195 c-77 -28 -124 -60 -204 -136 l-82 -79 -5 83 c-6 98 -17
123 -58 132 -47 10 -68 -2 -77 -43 -4 -20 -8 -320 -8 -666 l0 -630 33 -19 c28
-16 37 -17 61 -7 16 6 32 21 35 33 3 12 9 213 12 447 4 313 9 440 20 483 25
104 102 190 224 250 61 30 72 32 209 37 142 5 144 5 164 32 19 25 19 28 4 52
-10 14 -33 30 -54 35 -53 15 -230 12 -274 -4z"/>
<path d="M9551 2194 c-180 -48 -321 -167 -402 -339 -57 -123 -72 -210 -67
-379 6 -153 26 -230 90 -343 66 -118 212 -239 339 -282 75 -26 250 -44 329
-35 124 15 315 97 370 161 36 40 36 43 9 77 -26 33 -56 33 -104 1 -213 -145
-475 -153 -669 -21 -114 78 -210 240 -223 378 l-6 56 539 4 c646 4 601 -5 596
112 -8 178 -71 325 -192 447 -85 87 -160 130 -278 160 -91 23 -251 25 -331 3z
m284 -125 c66 -12 141 -47 198 -91 82 -65 163 -214 183 -336 l7 -42 -502 0
c-359 0 -501 3 -501 11 0 30 35 139 62 196 61 124 192 233 314 262 55 13 170
13 239 0z"/>
<path d="M15090 2187 c-120 -36 -195 -82 -291 -177 -70 -70 -94 -101 -127
-170 -59 -122 -75 -195 -75 -325 1 -211 61 -364 198 -501 67 -68 98 -90 176
-127 210 -102 439 -104 639 -6 68 33 102 59 166 124 l82 82 4 -110 c3 -105 4
-110 31 -133 35 -30 49 -30 84 0 l28 24 -3 369 c-4 417 -9 459 -71 587 -95
193 -264 331 -456 371 -109 23 -293 19 -385 -8z m355 -122 c90 -24 173 -73
246 -145 224 -221 223 -600 -1 -821 -78 -77 -161 -122 -265 -144 -365 -77
-685 182 -685 553 0 175 49 293 168 411 116 115 222 159 387 160 52 1 116 -6
150 -14z"/>
<path d="M20350 2195 c-81 -23 -177 -70 -239 -118 -150 -116 -244 -333 -244
-567 0 -130 20 -214 80 -339 80 -167 227 -288 408 -336 39 -10 105 -16 190
-17 116 -1 138 2 210 26 166 57 284 139 269 189 -16 57 -57 58 -148 3 -121
-73 -233 -101 -366 -93 -232 15 -415 164 -484 396 -9 30 -16 71 -16 92 l0 37
538 4 c642 4 598 -5 594 110 -10 279 -176 517 -417 597 -92 31 -291 39 -375
16z m264 -125 c73 -12 168 -56 223 -104 82 -71 150 -202 169 -323 l7 -43 -500
0 -500 0 8 48 c37 199 160 348 337 409 73 25 158 29 256 13z"/>
<path d="M22014 2195 c-241 -65 -434 -256 -495 -492 -28 -107 -28 -270 0 -376
82 -314 350 -517 682 -517 85 0 204 21 265 46 73 31 165 97 228 165 l64 69 4
-111 c3 -107 4 -112 31 -135 35 -30 49 -30 84 0 l28 24 -3 379 c-3 430 -5 444
-79 593 -89 179 -261 315 -449 355 -87 18 -291 18 -360 0z m347 -131 c188 -55
333 -207 384 -399 19 -76 20 -233 0 -309 -53 -203 -227 -372 -420 -407 -98
-18 -258 -6 -335 25 -99 40 -195 118 -255 206 -76 112 -90 165 -90 341 l0 146
49 99 c90 182 234 287 431 318 51 7 179 -3 236 -20z"/>
<path d="M29640 2195 c-185 -52 -360 -194 -438 -355 -56 -115 -74 -200 -74
-335 1 -209 59 -353 202 -495 133 -134 249 -185 445 -196 250 -15 447 72 571
252 l39 57 3 -101 c5 -185 -44 -317 -163 -438 -111 -112 -238 -164 -403 -164
-156 0 -299 58 -431 175 -80 70 -107 83 -139 66 -29 -15 -36 -45 -18 -79 28
-55 160 -166 248 -210 121 -61 176 -72 355 -72 129 0 164 3 216 21 208 69 367
232 449 459 23 64 23 70 23 480 0 466 2 448 -78 604 -28 55 -63 101 -112 150
-81 81 -151 126 -257 163 -64 23 -91 27 -228 30 -116 2 -169 -1 -210 -12z
m362 -134 c89 -24 168 -73 237 -146 106 -114 151 -234 151 -405 0 -171 -49
-299 -159 -410 -108 -110 -233 -160 -401 -160 -167 0 -292 50 -400 159 -114
115 -160 233 -160 416 0 177 47 294 164 410 119 118 209 153 391 154 79 1 130
-4 177 -18z"/>
<path d="M1897 2193 c-9 -2 -24 -18 -33 -34 -15 -30 -14 -31 42 -112 32 -45
131 -180 222 -300 112 -150 160 -222 154 -230 -5 -7 -105 -131 -222 -277 -245
-307 -268 -340 -251 -376 12 -27 54 -47 81 -39 10 3 119 136 244 295 125 159
233 294 241 300 15 13 59 -40 298 -356 184 -244 211 -266 270 -216 37 33 32
42 -208 362 -72 96 -157 212 -188 256 l-57 82 211 253 c257 308 266 321 251
354 -7 14 -23 30 -37 37 -49 22 -43 28 -424 -434 -53 -64 -99 -117 -102 -118
-3 0 -93 115 -200 256 -107 141 -201 264 -209 274 -16 20 -54 31 -83 23z"/>
<path d="M8378 2173 c-9 -20 -13 -210 -16 -676 l-4 -647 37 -15 c30 -13 40
-14 63 -3 26 13 27 18 35 108 4 52 7 349 5 658 l-3 564 -24 19 c-36 29 -79 25
-93 -8z"/>
<path d="M13898 2173 c-9 -20 -13 -210 -16 -676 l-4 -647 37 -15 c30 -13 40
-14 63 -3 26 13 27 18 35 108 4 52 7 349 5 658 l-3 564 -24 19 c-36 29 -79 25
-93 -8z"/>
<path d="M26596 2187 c-29 -22 -38 -218 -34 -795 l3 -524 28 -24 c32 -27 55
-30 81 -11 29 22 38 232 34 810 l-3 519 -24 19 c-27 22 -60 24 -85 6z"/>
</g>
</svg>
